<?xml version="1.0" encoding="UTF-8"?>
<svg version="1.1" xmlns="http://www.w3.org/2000/svg" width="1536" height="1536" viewBox="256 256 1024 1024">
<path d="M0 0 C506.88 0 1013.76 0 1536 0 C1536 506.88 1536 1013.76 1536 1536 C1029.12 1536 522.24 1536 0 1536 C0 1029.12 0 522.24 0 0 Z " fill="#58BF7F" transform="translate(0,0)"/>
<path d="M0 0 C13.86 0 27.72 0 42 0 C42 130.02 42 260.04 42 394 C28.47 394 14.94 394 1 394 C0.86989726 361.42547438 0.74220603 328.85094058 0.61781773 296.27639268 C0.60281415 292.34783593 0.58779033 288.41927927 0.57275391 284.49072266 C0.56826798 283.31855464 0.56826798 283.31855464 0.56369144 282.12270646 C0.52225255 271.30559052 0.47974326 260.48847929 0.43630803 249.67137119 C0.3610104 230.91894528 0.28800922 212.16651175 0.21875 193.4140625 C0.21600838 192.67304814 0.21326676 191.93203378 0.21044207 191.16856444 C-0.02482834 127.4455744 -0.05668349 63.72336534 0 0 Z " fill="#FBFDFC" transform="translate(848,596)"/>
<path d="M0 0 C13.2 0 26.4 0 40 0 C40 130.02 40 260.04 40 394 C27.13 394 14.26 394 1 394 C0.83049042 357.34607421 0.66683674 320.69212364 0.50904435 284.0381456 C0.50002832 281.9440767 0.49100133 279.85000786 0.48197412 277.75593901 C0.16974496 205.27484452 -0.10221161 132.79443732 -0.0625 60.3125 C-0.06207577 59.51355741 -0.06165154 58.71461482 -0.06121445 57.89146185 C-0.05078187 38.59429103 -0.03060723 19.29715038 0 0 Z " fill="#F9FCFA" transform="translate(556,596)"/>
<path d="M0 0 C12.87 0 25.74 0 39 0 C39 130.02 39 260.04 39 394 C26.13 394 13.26 394 0 394 C0 263.98 0 133.96 0 0 Z " fill="#FAFDFB" transform="translate(906,596)"/>
<path d="M0 0 C1.94019707 2.91029561 2.40679796 4.29066224 3.0078125 7.62109375 C6.56036939 26.14733088 13.02654506 42.06041545 21.0625 59.0625 C21.78578491 60.59656494 21.78578491 60.59656494 22.52368164 62.16162109 C35.31895612 88.6404014 54.25419197 110.15359333 82 121 C85.63292611 122.18685235 89.27470601 123.15155446 93 124 C93.88558594 124.20496094 94.77117187 124.40992188 95.68359375 124.62109375 C97.78554109 125.09657326 99.89227739 125.55081321 102 126 C102 126.66 102 127.32 102 128 C101.28457031 128.17015625 100.56914063 128.3403125 99.83203125 128.515625 C96.54666944 129.31465219 93.27269176 130.15057102 90 131 C88.95585938 131.26683594 87.91171875 131.53367187 86.8359375 131.80859375 C73.73177005 135.46670501 62.08081766 141.85259138 52 151 C50.78957031 152.08861328 50.78957031 152.08861328 49.5546875 153.19921875 C22.4279571 178.92284241 7.63254685 217.95354971 1 254 C-1 251 -1 251 -1.3203125 247.2890625 C-2.00137778 240.0428787 -4.55888385 233.23156921 -6.875 226.375 C-7.24131027 225.28335037 -7.24131027 225.28335037 -7.61502075 224.16964722 C-15.8007313 199.92526913 -26.97844358 177.33938538 -44 158 C-44.58523438 157.33226562 -45.17046875 156.66453125 -45.7734375 155.9765625 C-61.8215669 138.84501508 -81.5816859 132.41732544 -104 128 C-104 127.34 -104 126.68 -104 126 C-103.45698242 125.90501221 -102.91396484 125.81002441 -102.35449219 125.7121582 C-74.5688717 120.75883927 -51.18529221 108.38941433 -34.625 84.8125 C-24.78886998 70.33790981 -16.9960037 54.33143946 -10.78027344 37.99511719 C-10.22643219 36.57897492 -9.64317369 35.17418122 -9.04003906 33.77832031 C-6.0763897 26.81416809 -4.36278156 19.75594416 -2.75 12.375 C-2.481875 11.18003906 -2.21375 9.98507812 -1.9375 8.75390625 C-1.28422655 5.8375069 -0.63857276 2.9196468 0 0 Z " fill="#FDFEFD" transform="translate(1035,435)"/>
<path d="M0 0 C11.55 0 23.1 0 35 0 C35.60146537 78.01837451 36.10803998 156.03701704 36.51238817 234.05667192 C36.55086781 241.47549812 36.59008892 248.89432014 36.62960815 256.31314087 C36.87351331 302.20916497 37.07476397 348.10322724 37 394 C24.79 394 12.58 394 0 394 C0 263.98 0 133.96 0 0 Z " fill="#FCFEFD" transform="translate(497,596)"/>
<path d="M0 0 C11.22 0 22.44 0 34 0 C34 129.69 34 259.38 34 393 C22.45 393 10.9 393 -1 393 C-1.02258322 343.07853942 -1.04049708 293.15708005 -1.05106533 243.23561538 C-1.05231611 237.34856454 -1.05361043 231.46151371 -1.05493164 225.57446289 C-1.05519395 224.40240421 -1.05545626 223.23034553 -1.05572652 222.02276992 C-1.06008371 203.01832263 -1.06797153 184.01387836 -1.0771528 165.00943286 C-1.08648797 145.5246244 -1.09205532 126.03981752 -1.09408849 106.55500692 C-1.09546401 94.52150212 -1.09981612 82.48800583 -1.10791647 70.45450365 C-1.11318224 62.21464922 -1.11480468 53.97479921 -1.11350138 45.73494322 C-1.11285773 40.97341196 -1.11387847 36.21189561 -1.11920547 31.45036697 C-1.12403866 27.09872883 -1.12433919 22.74711576 -1.12089889 18.39547651 C-1.12047312 16.81404203 -1.12176954 15.23260603 -1.12488318 13.65117455 C-1.12884595 11.51577059 -1.12676417 9.38045938 -1.12304783 7.24505711 C-1.12342755 6.05463387 -1.12380727 4.86421064 -1.1241985 3.63771397 C-1 1 -1 1 0 0 Z " fill="#FDFEFE" transform="translate(1086,596)"/>
<path d="M0 0 C10.56 0 21.12 0 32 0 C32.18585237 19.16652043 32.35071152 38.33316448 32.5 57.5 C32.50594854 58.26077945 32.51189708 59.0215589 32.51802588 59.80539227 C33.08200592 132.19760593 33.08543328 204.58994464 33.06315851 276.98382044 C33.06249802 279.13142935 33.06185527 281.27903827 33.06121445 283.42664719 C33.0500958 320.28443754 33.02941217 357.14221953 33 394 C22.11 394 11.22 394 0 394 C0 263.98 0 133.96 0 0 Z " fill="#F9FCFA" transform="translate(792,596)"/>
<path d="M0 0 C6.27 0 12.54 0 19 0 C19 130.02 19 260.04 19 394 C12.73 394 6.46 394 0 394 C0 263.98 0 133.96 0 0 Z " fill="#F9FCFA" transform="translate(612,596)"/>
<path d="M0 0 C4.95 0 9.9 0 15 0 C15 130.02 15 260.04 15 394 C10.05 394 5.1 394 0 394 C0 263.98 0 133.96 0 0 Z " fill="#F3FAF5" transform="translate(731,596)"/>
<path d="M0 0 C3.96 0 7.92 0 12 0 C12 130.02 12 260.04 12 394 C7.38 394 2.76 394 -2 394 C-2.06573093 373.33336121 -2.10356715 352.66672769 -2.125 332 C-2.12586861 331.18815782 -2.12673721 330.37631563 -2.12763214 329.53987217 C-2.20282114 257.16964306 -1.65074679 184.80549763 -1.01804292 112.43873978 C-0.99994444 110.36864485 -0.98186881 108.29854973 -0.96379566 106.22845459 C-0.65449414 70.81885993 -0.33333426 35.40937676 0 0 Z " fill="#F6FBF8" transform="translate(438,596)"/>
<path d="M0 0 C4.29 0 8.58 0 13 0 C13 130.02 13 260.04 13 394 C8.71 394 4.42 394 0 394 C0 263.98 0 133.96 0 0 Z " fill="#ECF7F0" transform="translate(467,596)"/>
<path d="M0 0 C3.96 0 7.92 0 12 0 C12 130.02 12 260.04 12 394 C7.71 394 3.42 394 -1 394 C-1.05841868 328.94218902 -1.02377041 263.88554467 -0.78125 198.828125 C-0.77851342 198.09270375 -0.77577683 197.3572825 -0.77295732 196.59957576 C-0.70366441 178.00487927 -0.63000264 159.41020107 -0.55461788 140.81552839 C-0.51105215 130.05866376 -0.46875858 119.30179462 -0.42724609 108.54492188 C-0.4242591 107.77101078 -0.4212721 106.99709969 -0.41819459 106.19973674 C-0.40319409 102.31159624 -0.38821335 98.42345566 -0.37324238 94.53531504 C-0.25188391 63.02353098 -0.1271551 31.51176123 0 0 Z " fill="#F2FAF5" transform="translate(703,596)"/>
<path d="M0 0 C12.64063007 12.64063007 14.22291562 26.47857456 14.25243907 43.52842914 C14.24113546 46.77624773 14.2014061 50.02346429 14.16065621 53.27102852 C14.11704131 57.63884076 14.13211522 62.0065274 14.13967896 66.37449646 C14.14489576 73.922723 14.11380503 81.47007811 14.05730057 89.01808548 C13.97566174 99.9307708 13.9499489 110.8430393 13.93742065 121.75599687 C13.91559158 139.46582466 13.84919891 157.17518908 13.75439453 174.88476562 C13.66245527 192.07712503 13.59174437 209.2693581 13.54931641 226.46191406 C13.54668917 227.52354246 13.54406194 228.58517086 13.54135509 229.67896982 C13.52830371 235.00541104 13.51566687 240.33185316 13.50323606 245.65829587 C13.39974727 289.77252109 13.2230241 333.88622922 13 378 C8.71 378 4.42 378 0 378 C0 253.26 0 128.52 0 0 Z " fill="#F4FBF6" transform="translate(995,612)"/>
<path d="M0 0 C3.96 0 7.92 0 12 0 C12.03170563 29.1249942 12.05133314 58.2499908 12.0625 87.375 C12.0629343 88.47450438 12.06336861 89.57400876 12.06381607 90.70683146 C12.09169158 163.28512567 11.90439497 235.86033326 11.5 308.4375 C11.49402628 309.5119786 11.48805257 310.5864572 11.48189783 311.69349575 C11.33102905 338.79572369 11.17109161 365.89789219 11 393 C7.37 393 3.74 393 0 393 C0 263.31 0 133.62 0 0 Z " fill="#FBFDFC" transform="translate(674,597)"/>
<path d="M0 0 C3.63 0 7.26 0 11 0 C11.17039174 34.9954833 11.33378125 69.99099767 11.49095565 104.98654282 C11.49997091 106.99352308 11.50899827 109.00050328 11.51802588 111.00748348 C11.84387015 183.54662769 12.0995579 256.08496256 12.0625 328.625 C12.06207577 329.48152412 12.06165154 330.33804825 12.06121445 331.22052765 C12.05066381 352.14703202 12.03129541 373.07351588 12 394 C8.04 394 4.08 394 0 394 C0 263.98 0 133.96 0 0 Z " fill="#FAFDFB" transform="translate(763,596)"/>
<path d="M0 0 C0.66 0 1.32 0 2 0 C2.32613281 1.05058594 2.65226562 2.10117187 2.98828125 3.18359375 C3.42967604 4.60156607 3.87108311 6.01953456 4.3125 7.4375 C4.5403418 8.17234619 4.76818359 8.90719238 5.00292969 9.66430664 C6.18216333 13.45081749 7.41000842 17.20419012 8.75 20.9375 C10.22498338 25.25411803 10.63982929 29.46184902 11 34 C11.66 34 12.32 34 13 34 C13 32.35 13 30.7 13 29 C13.66 28.67 14.32 28.34 15 28 C15.031244 52.24999373 15.0511845 76.49998897 15.0625 100.75 C15.0629343 101.65386114 15.06336861 102.55772227 15.06381607 103.48897314 C15.08836776 156.01564587 14.9679455 208.53778131 14.5 261.0625 C14.49402628 261.73493933 14.48805257 262.40737865 14.48189783 263.10019493 C14.33389145 279.73359136 14.17423723 296.36685769 14 313 C9.38 313 4.76 313 0 313 C0 209.71 0 106.42 0 0 Z " fill="#F0F9F3" transform="translate(1024,677)"/>
<path d="M0 0 C0.33 0 0.66 0 1 0 C1 119.46 1 238.92 1 362 C-3.29 362 -7.58 362 -12 362 C-12.02605184 354.99927 -12.04344216 347.99857179 -12.05493164 340.99780273 C-12.05975294 338.65014148 -12.06639231 336.30248275 -12.07543945 333.95483398 C-12.12602367 320.41909192 -12.05687864 306.89191091 -11.77294922 293.35888672 C-11.14104294 262.59988361 -10.946681 231.86059368 -10.98755854 201.09514612 C-10.99868614 192.5967639 -11.00179304 184.09841025 -10.9997406 175.60002136 C-10.99949577 174.38173812 -10.99925095 173.16345488 -10.9989987 171.90825397 C-10.99789555 166.94056056 -10.99658731 161.97286741 -10.9945823 157.00517428 C-10.98925318 143.03064692 -10.99960286 129.05647376 -11.05126953 115.08203125 C-11.09287665 103.79464149 -11.10243661 92.50772426 -11.07515907 81.22028399 C-11.06204403 75.3029368 -11.06426578 69.38657939 -11.10620117 63.46934509 C-11.14512069 57.93919446 -11.14120171 52.41064597 -11.10607719 46.88048553 C-11.10059995 44.87353945 -11.11002725 42.86647849 -11.13676643 40.85970306 C-11.32239919 25.97420427 -8.146256 14.13671984 -1 1 C-0.67 0.67 -0.34 0.34 0 0 Z " fill="#F9FCFA" transform="translate(1066,628)"/>
<path d="M0 0 C2.97 0 5.94 0 9 0 C9 129.69 9 259.38 9 393 C6.03 393 3.06 393 0 393 C0 263.31 0 133.62 0 0 Z " fill="#F5FBF7" transform="translate(969,596)"/>
<path d="M0 0 C2.64 0 5.28 0 8 0 C8.66935002 63.88585222 9.10095711 127.76685037 9.09765625 191.65625 C9.09762838 192.40272907 9.09760051 193.14920814 9.09757179 193.91830778 C9.09664712 212.83817492 9.08618903 231.75803232 9.07202661 250.67789364 C9.06392507 261.62738433 9.05857675 272.57687413 9.05493164 283.52636719 C9.05466892 284.31327716 9.05440619 285.10018713 9.05413551 285.91094285 C9.05282916 289.86410223 9.05156577 293.81726163 9.05032361 297.77042103 C9.04019035 329.84695233 9.02271821 361.92347505 9 394 C6.03 394 3.06 394 0 394 C0 263.98 0 133.96 0 0 Z " fill="#F1F9F4" transform="translate(648,596)"/>
<path d="M0 0 C2.5654594 2.5654594 2.54046087 4.47686668 3 8 C2.34 8 1.68 8 1 8 C1 107.99 1 207.98 1 311 C0.67 311 0.34 311 0 311 C0 208.37 0 105.74 0 0 Z " fill="#E8F6ED" transform="translate(1025,678)"/>
<path d="M0 0 C2.5654594 2.5654594 2.54046087 4.47686668 3 8 C2.34 8 1.68 8 1 8 C1 24.17 1 40.34 1 57 C0.67 57 0.34 57 0 57 C0 38.19 0 19.38 0 0 Z " fill="#DAF1E3" transform="translate(1025,678)"/>
</svg>
